<?xml version="1.0" encoding="utf-8"?>
<!-- Generator: Adobe Illustrator 27.4.0, SVG Export Plug-In . SVG Version: 6.00 Build 0)  -->
<svg version="1.1" id="Layer_1" xmlns="http://www.w3.org/2000/svg" xmlns:xlink="http://www.w3.org/1999/xlink" x="0px" y="0px"
	 viewBox="0 0 384 512" style="enable-background:new 0 0 384 512;" xml:space="preserve">
<style type="text/css">
	.st0{fill:#6415FF;}
</style>
<path class="st0" d="M64,0C28.7,0,0,28.7,0,64v384c0,35.3,28.7,64,64,64h256c35.3,0,64-28.7,64-64V160H256c-17.7,0-32-14.3-32-32V0
	H64z M256,0v128h128L256,0z M64,80c0-8.8,7.2-16,16-16h64c8.8,0,16,7.2,16,16s-7.2,16-16,16H80C71.2,96,64,88.8,64,80z M64,144
	c0-8.8,7.2-16,16-16h64c8.8,0,16,7.2,16,16s-7.2,16-16,16H80C71.2,160,64,152.8,64,144z M192,216c8.8,0,16,7.2,16,16v17.3
	c8.5,1.2,16.7,3.1,24.1,5.1c8.5,2.3,13.6,11,11.3,19.6s-11,13.6-19.6,11.3c-11.1-3-22-5.2-32.1-5.3c-8.4-0.1-17.4,1.8-23.6,5.5
	c-5.7,3.4-8.1,7.3-8.1,12.8c0,3.7,1.3,6.5,7.3,10.1c6.9,4.1,16.6,7.1,29.2,10.9l0.5,0.1l0,0l0,0c11.3,3.4,25.3,7.6,36.3,14.6
	c12.1,7.6,22.4,19.7,22.7,38.2c0.3,19.3-9.6,33.3-22.9,41.6c-7.7,4.8-16.4,7.6-25.1,9.1V440c0,8.8-7.2,16-16,16s-16-7.2-16-16v-17.8
	c-11.2-2.1-21.7-5.7-30.9-8.9l0,0c-2.1-0.7-4.2-1.4-6.2-2.1c-8.4-2.8-12.9-11.9-10.1-20.2c2.8-8.3,11.9-12.9,20.2-10.1
	c2.5,0.8,4.8,1.6,7.1,2.4l0,0l0,0l0,0c13.6,4.6,24.6,8.4,36.3,8.7c9.1,0.3,17.9-1.7,23.7-5.3c5.1-3.2,7.9-7.3,7.8-14
	c-0.1-4.6-1.8-7.8-7.7-11.6c-6.8-4.3-16.5-7.4-29-11.2l-1.6-0.5l0,0c-11-3.3-24.3-7.3-34.8-13.7c-12-7.2-22.6-18.9-22.7-37.3
	c-0.1-19.4,10.8-32.8,23.8-40.5c7.5-4.4,15.8-7.2,24.1-8.7V232C176,223.2,183.2,216,192,216L192,216z"/>
</svg>
